<?xml version="1.0" standalone="no"?>
<!DOCTYPE svg PUBLIC "-//W3C//DTD SVG 20010904//EN"
 "http://www.w3.org/TR/2001/REC-SVG-20010904/DTD/svg10.dtd">
<svg version="1.0" xmlns="http://www.w3.org/2000/svg"
 width="1702.000000pt" height="1702.000000pt" viewBox="0 0 1702.000000 1702.000000"
 preserveAspectRatio="xMidYMid meet">
<metadata>
Created by potrace 1.14, written by Peter Selinger 2001-2017
</metadata>
<g transform="translate(0.000000,1702.000000) scale(0.100000,-0.100000)"
fill="#000000" stroke="none">
<path d="M10350 15499 c-179 -18 -318 -96 -401 -227 -16 -26 -42 -85 -56 -132
-21 -70 -26 -105 -26 -200 0 -63 3 -137 7 -164 l8 -48 -39 6 c-21 3 -92 16
-158 30 -66 13 -138 27 -160 30 -22 3 -62 10 -90 16 -27 5 -68 11 -90 14 -22
2 -67 9 -100 14 -33 6 -85 14 -115 17 -30 4 -66 8 -80 10 -36 6 -215 24 -285
30 -33 3 -80 7 -105 10 -181 19 -841 27 -1045 12 -157 -12 -301 -26 -325 -32
-8 -2 -40 -6 -70 -10 -52 -5 -70 -8 -137 -20 -16 -3 -57 -10 -93 -16 -36 -6
-92 -18 -125 -26 -33 -8 -69 -17 -79 -19 -58 -11 -194 -50 -286 -81 -58 -19
-111 -36 -118 -37 -10 -1 -13 37 -15 169 -3 182 -16 254 -62 345 -84 166 -235
220 -440 159 -85 -26 -141 -53 -269 -132 -117 -72 -172 -125 -243 -230 -208
-306 -254 -542 -140 -722 18 -27 45 -61 61 -75 38 -33 176 -110 199 -110 27 0
21 -11 -35 -65 -98 -94 -203 -217 -386 -450 -4 -5 -44 -64 -88 -130 -295 -440
-502 -914 -628 -1435 -34 -141 -70 -323 -81 -418 -4 -26 -8 -54 -10 -62 -2 -8
-7 -46 -10 -85 -4 -38 -8 -80 -10 -93 -25 -156 -25 -807 -1 -997 2 -16 7 -59
11 -95 3 -36 8 -76 10 -90 2 -14 9 -63 15 -110 25 -186 85 -486 138 -690 83
-319 113 -395 259 -657 l35 -63 -33 14 c-132 56 -248 228 -294 436 -49 226
-81 296 -175 391 -121 122 -301 173 -474 135 -82 -19 -185 -88 -256 -172 -78
-94 -167 -287 -195 -429 -25 -121 -25 -474 0 -630 3 -16 7 -43 10 -59 2 -16 9
-52 14 -80 6 -28 12 -62 15 -76 13 -83 103 -357 159 -485 70 -162 180 -364
285 -525 38 -58 156 -221 183 -255 207 -249 288 -338 450 -490 99 -93 162
-148 230 -202 68 -53 102 -120 125 -245 13 -76 19 -307 10 -383 -2 -16 -7 -61
-11 -100 -3 -38 -8 -81 -10 -95 -8 -49 -36 -216 -41 -240 -3 -14 -9 -47 -13
-75 -51 -288 -233 -911 -384 -1310 -25 -66 -47 -133 -50 -150 -3 -16 -10 -57
-16 -90 -6 -33 -13 -75 -16 -94 -3 -19 -7 -37 -9 -40 -2 -3 -7 -31 -10 -61 -4
-30 -10 -79 -15 -108 -11 -68 -6 -291 9 -390 19 -129 49 -233 93 -322 48 -97
55 -108 119 -172 108 -108 225 -152 408 -152 105 0 190 13 308 49 168 50 373
144 617 283 83 47 184 103 225 124 41 22 90 52 110 67 40 32 247 171 254 171
2 0 33 18 69 39 163 100 427 220 647 294 171 58 466 130 625 152 126 18 191
25 265 32 111 10 561 10 670 0 182 -16 246 -23 330 -37 30 -5 71 -11 90 -14
19 -3 60 -10 90 -16 30 -6 66 -13 80 -15 47 -9 72 -14 88 -19 9 -3 28 -7 42
-10 72 -12 374 -96 495 -138 248 -84 530 -208 608 -269 23 -18 67 -61 97 -97
204 -238 456 -438 722 -572 215 -109 373 -149 488 -126 68 14 186 87 243 151
10 11 32 35 48 52 33 37 106 148 137 208 62 123 133 396 147 565 4 41 9 91 11
110 4 42 5 433 0 475 -2 17 -6 73 -10 126 -4 53 -9 111 -11 130 -3 19 -7 57
-10 84 -4 28 -8 61 -10 75 -2 14 -6 43 -9 65 -26 186 -109 632 -138 740 -6 22
-12 49 -13 60 -2 11 -29 121 -60 245 -49 189 -58 239 -57 310 0 87 10 259 18
317 10 80 15 112 25 168 16 95 17 98 28 145 5 25 13 60 16 79 3 19 8 37 10 41
2 3 6 17 8 31 9 44 87 306 123 411 19 57 37 110 39 118 2 8 13 40 25 70 12 30
23 60 24 65 2 13 93 247 118 305 11 25 24 54 28 65 20 49 95 225 120 280 15
33 39 87 54 120 107 238 475 972 556 1110 10 17 55 100 100 185 45 85 95 171
110 190 84 106 148 257 167 395 15 108 7 280 -18 380 -64 251 -194 428 -382
516 -93 43 -155 52 -258 37 -218 -33 -466 -249 -662 -578 -31 -53 -57 -101
-57 -107 0 -7 -4 -14 -9 -18 -6 -3 -6 6 -1 24 4 17 11 58 15 93 4 35 9 71 11
82 2 10 6 51 10 90 3 39 7 82 9 95 19 118 27 826 13 1061 -9 147 -21 281 -33
375 -2 17 -7 53 -10 80 -11 88 -16 119 -20 145 -3 14 -7 43 -11 65 -3 22 -12
76 -20 120 -22 114 -24 125 -35 175 -6 25 -12 52 -14 60 -46 216 -164 590
-236 749 -11 24 -29 66 -40 94 -54 137 -195 393 -312 567 -135 201 -227 312
-407 490 -135 134 -152 149 -247 223 l-61 48 97 97 c53 53 113 122 133 153
127 194 118 392 -24 554 -93 106 -329 239 -444 251 -93 9 -123 10 -194 3z"/>
<path d="M14710 13800 c-129 -20 -194 -42 -277 -92 -162 -98 -260 -288 -259
-501 1 -41 -3 -65 -9 -63 -235 105 -356 133 -494 112 -198 -30 -357 -190 -432
-436 -27 -88 -23 -73 -34 -135 -4 -27 -10 -57 -12 -65 -5 -21 -4 -260 1 -286
2 -12 7 -45 11 -74 11 -90 22 -140 46 -222 56 -185 164 -314 298 -355 31 -9
58 -18 60 -20 2 -1 -14 -30 -36 -65 -79 -127 -108 -208 -118 -331 -11 -135 44
-263 157 -365 20 -18 66 -75 102 -125 261 -367 532 -461 755 -262 35 32 113
137 125 170 6 16 15 5 46 -60 46 -99 86 -150 153 -195 49 -33 57 -35 132 -35
59 0 91 5 120 20 62 29 136 87 190 147 32 36 73 67 114 88 85 42 116 65 176
126 184 188 175 443 -26 747 l-38 57 27 0 c43 0 126 44 171 91 53 55 97 147
117 242 14 66 19 174 10 222 -2 11 -7 43 -11 70 -3 28 -16 82 -26 120 -11 39
-22 78 -24 87 -6 30 -70 161 -98 201 -97 142 -223 222 -384 242 -57 7 -58 8
-42 75 37 158 49 248 49 390 1 150 -30 260 -100 356 -27 37 -108 92 -162 110
-57 19 -200 26 -278 14z"/>
<path d="M1507 12790 c-87 -22 -191 -93 -302 -205 -88 -89 -106 -114 -188
-260 -6 -11 -21 -58 -33 -105 -18 -68 -22 -104 -19 -180 2 -52 6 -104 8 -115
11 -48 49 -147 67 -177 29 -47 25 -55 -27 -63 -67 -10 -218 -60 -280 -93 -130
-68 -230 -167 -288 -287 -53 -107 -69 -182 -69 -320 -1 -244 43 -394 177 -610
180 -290 389 -401 601 -319 14 5 15 1 10 -32 -12 -73 -10 -199 3 -269 37 -201
148 -312 332 -332 30 -3 78 -16 106 -28 154 -69 331 -94 455 -67 212 47 335
217 357 492 3 41 7 76 8 78 1 2 15 -8 31 -21 71 -59 188 -100 258 -90 53 7
134 52 172 96 47 54 106 179 134 287 13 51 37 109 60 145 87 139 129 278 125
405 -8 202 -137 356 -383 456 -22 9 -22 10 18 54 101 110 133 254 95 434 -28
133 -99 252 -229 381 -193 190 -417 231 -619 113 -26 -15 -49 -28 -51 -28 -2
0 -7 21 -11 48 -10 68 -70 272 -97 329 -62 132 -134 220 -214 259 -59 29 -147
39 -207 24z"/>
<path d="M14722 9049 c-186 -34 -438 -357 -497 -639 -39 -185 7 -387 121 -526
l33 -40 -47 -19 c-167 -69 -338 -198 -420 -318 -57 -82 -100 -187 -117 -281
-7 -45 -8 -209 0 -246 3 -14 8 -40 11 -59 9 -56 53 -182 89 -256 64 -131 222
-311 346 -394 148 -99 309 -113 434 -40 19 12 35 19 36 17 0 -1 3 -23 5 -48
26 -287 111 -435 275 -481 42 -11 162 -14 179 -4 4 3 50 -2 101 -9 137 -21
284 -12 386 24 177 62 281 192 318 395 8 45 8 176 -1 231 -6 44 -5 47 12 39
109 -45 123 -49 199 -49 85 0 129 16 187 67 82 72 137 231 153 440 2 27 8 54
13 60 16 19 62 157 77 227 20 94 13 240 -14 313 -45 117 -142 205 -278 252
-62 22 -126 37 -159 38 -7 0 3 23 20 51 48 76 67 136 71 223 7 153 -53 307
-164 419 -269 273 -558 308 -791 98 l-40 -36 -9 23 c-62 160 -108 253 -165
333 -108 151 -232 218 -364 195z"/>
<path d="M2235 6765 c-84 -18 -140 -41 -215 -91 -138 -90 -226 -267 -229 -457
l-1 -47 -38 24 c-143 90 -287 139 -412 140 -111 0 -140 -6 -226 -48 -166 -83
-279 -272 -341 -571 -12 -54 -7 -378 7 -455 41 -239 134 -401 272 -469 34 -17
67 -31 75 -31 19 0 17 -6 -28 -62 -48 -61 -125 -217 -134 -273 -12 -69 -13
-153 -4 -198 15 -67 66 -162 118 -219 26 -29 74 -96 106 -148 199 -328 412
-462 628 -394 67 21 181 118 228 195 13 21 28 39 33 39 5 0 7 -3 3 -6 -7 -8
29 -105 63 -166 59 -109 151 -171 250 -170 99 0 195 47 307 149 30 28 74 56
103 66 290 103 408 359 305 662 -20 57 -59 140 -98 206 l-27 46 48 7 c171 22
304 221 305 456 2 189 -37 374 -109 520 -75 152 -183 250 -333 301 -30 11 -67
19 -83 19 -23 0 -28 4 -24 18 2 9 14 50 26 91 12 41 24 83 26 95 37 189 47
318 32 426 -24 173 -138 303 -303 344 -53 14 -267 14 -330 1z"/>
<path d="M12872 4370 c-67 -41 -67 -75 -2 -205 51 -102 92 -242 105 -359 11
-104 7 -284 -10 -386 -2 -14 -7 -45 -10 -70 -43 -312 -254 -848 -472 -1204
-47 -75 -56 -99 -56 -135 0 -56 35 -91 91 -91 55 1 76 22 154 158 48 83 132
240 153 287 12 28 38 82 56 120 18 39 34 72 34 75 1 3 7 19 14 35 25 59 102
260 106 276 2 9 10 36 18 60 34 101 75 273 102 424 19 109 25 342 13 475 -20
207 -136 512 -206 538 -53 20 -60 20 -90 2z"/>
<path d="M3864 4299 c-37 -13 -71 -70 -108 -179 -64 -191 -81 -306 -81 -550 1
-177 8 -277 31 -408 8 -45 17 -99 20 -120 12 -75 94 -381 139 -517 91 -272
243 -623 286 -664 49 -46 142 -12 155 55 5 30 -2 54 -46 147 -28 62 -55 121
-60 132 -4 11 -17 40 -28 65 -80 181 -219 627 -247 789 -3 19 -7 37 -9 40 -2
3 -7 31 -11 61 -4 30 -8 57 -10 60 -1 3 -6 34 -10 70 -3 36 -8 79 -11 95 -7
51 -7 306 0 381 6 59 30 180 50 254 10 35 49 136 58 147 11 14 13 60 4 90 -13
40 -79 69 -122 52z"/>
<path d="M13525 3159 c-63 -19 -82 -86 -45 -159 46 -91 61 -250 35 -375 -44
-211 -200 -484 -423 -743 -74 -86 -84 -110 -63 -165 10 -26 64 -57 90 -52 9 2
21 4 27 4 36 3 210 211 327 391 55 85 133 229 155 285 6 17 17 44 23 60 7 17
13 32 14 35 1 3 4 12 8 20 30 76 52 221 50 335 -1 103 -22 193 -65 283 -23 50
-37 67 -64 78 -18 8 -35 14 -36 13 -2 0 -16 -5 -33 -10z"/>
<path d="M3340 3073 c-30 -21 -58 -83 -80 -177 -61 -254 1 -566 180 -914 75
-145 210 -354 243 -377 25 -17 80 -20 108 -5 47 26 58 112 19 155 -41 46 -146
220 -211 350 -115 231 -169 429 -164 605 3 104 7 127 35 209 24 67 24 74 4
117 -22 46 -93 66 -134 37z"/>
</g>
</svg>
